<?xml version="1.0" encoding="utf-8"?>
<!-- Generator: Adobe Illustrator 24.0.1, SVG Export Plug-In . SVG Version: 6.00 Build 0)  -->
<svg version="1.1" id="Camada_1" xmlns="http://www.w3.org/2000/svg" xmlns:xlink="http://www.w3.org/1999/xlink" x="0px" y="0px"
	 viewBox="0 0 3676 1534" style="enable-background:new 0 0 3676 1534;" xml:space="preserve">
<style type="text/css">
	.st0{stroke:#000000;stroke-width:11;stroke-miterlimit:10;}
	.st1{stroke:#000000;stroke-width:10;stroke-miterlimit:10;}
	.st2{stroke:#000000;stroke-miterlimit:10;}
</style>
<path class="st0" d="M1806.5,94.7l-129.9,94.8l14.2,0.3l14.2,0.3l56.3-40.4c30.9-22.3,84.7-61,119.6-86.1l63.4-45.6l4.6,4.2
	c2.5,2.3,37.2,36.2,77.1,75.3c39.9,39.1,86.7,84.9,104,101.8l31.4,30.7h13.3c7.3,0,13.3-0.3,13.3-0.8c0-0.4-48.7-48-108.1-105.7
	l-108.1-105l149.2-0.3c82-0.1,216-0.1,297.7,0l148.5,0.3l-146.6,152.2L2273.9,323l-389.6,0.2l-389.7,0.3l21.9,23.2l21.9,23.3h12.9
	h12.9l-11.3-12.1c-6.3-6.6-12-12.9-12.8-14c-1.3-1.9,10.1-1.9,1048.9-1.9h1050.3l-2.4,3c-5.4,6.8-72.9,88.4-79.7,96.2
	c-1.4,1.7-0.7,1.8,12.9,1.8h14.4l17-20.7c38.2-46.5,74.5-91.7,74.3-92.5c-0.2-0.4-58.8-43.8-130.3-96.3l-130-95.5l-14.5,0.3
	c-14,0.2-14.5,0.3-14.8,2.4c-0.2,1.5,0.4,2.3,2,2.8c3,1,53.4,36.3,71.5,50.1c37.9,29.1,81.4,61.4,167.6,124.7
	c3.7,2.7,6.6,5.1,6.4,5.4c-0.3,0.2-166.6,0.1-369.6-0.3l-369.1-0.7l-145.9-152.1l-146-152.1l145.5-0.3c80-0.1,210.9-0.1,290.9,0
	l145.5,0.3l-31.3,29.6c-17.1,16.3-40,37.6-50.7,47.4c-10.7,9.9-19.6,18.2-19.8,18.7c-0.2,0.4,6.1,0.8,14,0.8h14.3l60.3-57
	c33.2-31.3,60.6-57.1,61-57.4c0.3-0.3-291.3-0.6-647.9-0.6h-648.5L1806.5,94.7z M2727.1,174.3l138.5,148.2l-139.2,0.3
	c-76.6,0.1-202.3,0.1-279.4,0l-140.2-0.3l23.9-25.5c13.1-14,76-81.2,139.7-149.3c86.5-92.5,116.1-123.6,117-122.8
	C2588,25.6,2650.8,92.8,2727.1,174.3z"/>
<path d="M1930.7,433.8c-7.5,13.6-13.7,25.5-13.7,26.5c0,1.5,1.1,1.7,8.3,1.7h8.2l13.8-24.8c7.5-13.6,13.7-25.5,13.7-26.5
	c0-1.5-1.1-1.7-8.3-1.7h-8.2L1930.7,433.8z"/>
<path d="M1214.5,418.7c-6.3,1.9-14.1,7.1-19.5,12.9l-4.2,4.6l5,5.1l5.1,5l5.7-5.2c14.1-12.9,23-13.1,50.5-0.8
	c16.2,7.3,21.6,8.7,32.8,8.7c13.4,0,23.9-4.7,33.1-14.6l4.2-4.6l-5-5.1l-5.1-5l-5.7,5.2c-14.1,12.9-23,13.1-50.5,0.8
	c-7.9-3.6-16.8-7-19.7-7.6C1233.9,416.6,1220.5,416.8,1214.5,418.7z"/>
<path class="st1" d="M58.4,519c-24.4,6.4-42.6,24.2-49.6,48.5C5.9,577.8,5.7,597,8.3,607c6.9,26.1,25.3,42.6,61.2,55
	c30.7,10.7,46.6,21.6,55.9,38.4c9.2,16.5,9.8,37.5,1.6,54.2c-4,8.1-14.5,18.1-23.5,22.4c-10,4.8-23.7,7.3-36,6.7
	c-22.7-1.2-38.4-10.2-56.6-32.7l-3.5-4.4l-3.7,2.3c-2,1.2-3.7,3-3.7,3.9c0,2.9,7,12.3,14.7,19.9c8.6,8.5,19.6,15.3,30.8,19
	c7.4,2.5,9.3,2.7,25,2.8c19.7,0,27-1.5,40.9-8.8c9.2-4.7,20.5-15.2,25-23c7.7-13.2,10.6-33.4,7.2-49.3
	c-3.6-16.2-13.1-31.3-26.1-41.2c-8.7-6.6-27.2-15.7-43-21.3c-40.2-14-55.7-31.9-55.8-64.4c0-18,4.5-29.9,15.7-41
	c12.5-12.4,28.3-18.3,46.1-17.1c18.2,1.1,28.5,5.4,39.6,16.5c5.4,5.5,8.5,9.5,10.7,14.3c1.9,4,3.8,6.8,4.7,6.8
	c1.8,0,9.5-4.7,9.5-5.8c0-0.4-2.1-4.3-4.7-8.7c-13.2-22.6-35.1-34.6-63.2-34.4C69.1,517.1,63.3,517.7,58.4,519z"/>
<path class="st1" d="M1619,517.5c-0.8,0.2-4.9,0.9-9,1.5c-40.1,6.4-78.8,35.1-98.3,72.9c-11,21.3-15.2,38.9-15.2,64.1
	c0,19.2,1.2,27.1,6.6,44c15.8,49.6,61.2,87.3,113.4,94.1c11.4,1.5,37.5,0.6,47.4-1.6c26.4-5.9,49.7-18.4,68.6-37
	c28.8-28.4,42.7-63.5,41.2-104.5c-1-27.8-7.7-49.1-22.5-71.6c-20.2-30.6-51.2-51.8-87.5-59.9C1657.1,518,1623.3,516.5,1619,517.5z
	 M1661.5,530.9c49.1,10.7,87.4,49.8,98.2,100.4c2.4,11.4,2.4,38,0,49.4c-7,33.1-25.3,60.9-52.6,80.3c-14.7,10.4-28.1,16.3-46.1,20.3
	c-12.8,2.8-37.5,3-50,0.4c-25.7-5.5-45.5-16.3-64.6-35.2c-49.7-49.2-51-127.3-3-178.3c20.4-21.5,46.5-35.2,75.2-39.1
	C1628.8,527.7,1651,528.6,1661.5,530.9z"/>
<path class="st1" d="M559.5,521.2c-0.3,0.7-0.4,61.8-0.3,135.8l0.3,134.5h5h5l0.3-130.3L570,531h34.5c37.5,0,50,0.9,61.1,4.4
	c18.5,5.9,34.7,19.8,43.3,37.2c5.1,10.5,7.2,18.9,7.8,31.9c1.2,25.4-6.2,44.4-23.7,60.8c-14.3,13.4-29.6,19.2-54.2,20.3
	c-12.6,0.7-13.9,0.9-13.6,2.5c0.3,1.7,78.7,98.7,82.8,102.4c2.5,2.3,13.3,1.8,13.8-0.7c0.3-1.3-19.9-26.3-71-88l-3.9-4.7l3.8-0.6
	c22.4-3.4,38.6-11.2,52.7-25.1c19.3-19.1,28.5-45.2,25.5-72.4c-3.4-30.2-20.9-55.8-47.4-69c-18.4-9.3-18.9-9.3-73.8-9.8
	C568.9,519.9,559.9,520.1,559.5,521.2z"/>
<path class="st1" d="M1252.7,523.2c-41,98.9-108.8,266.1-108.4,267.3c0.5,1.1,2.1,1.5,6,1.5h5.4l15.1-37.3
	c8.3-20.4,17-41.8,19.3-47.5l4.1-10.2l64.6,0.2l64.6,0.3l19.1,47l19.1,47l5.7,0.3c4.4,0.2,5.9-0.1,6.3-1.2
	c0.5-1.2-104.5-258.5-109.2-267.9c-1.3-2.3-2.1-2.7-5.9-2.7C1254.4,520,1253.9,520.3,1252.7,523.2z M1288.9,612.2l29.7,73.3
	l-29.8,0.3c-16.4,0.1-43.2,0.1-59.6,0l-29.9-0.3l29.6-73.7c16.3-40.5,29.7-73.5,29.9-73.3C1259,538.7,1272.5,571.8,1288.9,612.2z"/>
<path class="st1" d="M1914.6,521.5c-0.9,2.5-0.7,267.8,0.3,269.3c0.5,0.9,2.5,1.2,5.7,1l4.9-0.3V656V520.5l-5.1-0.3
	C1916.4,520,1915.1,520.3,1914.6,521.5z"/>
<path class="st1" d="M2078.5,521.2c-0.3,0.7-0.4,61.8-0.3,135.8l0.3,134.5l5.3,0.3c2.8,0.2,5.3,0.2,5.4,0
	c0.2-0.2,0.5-56.6,0.8-125.4l0.5-125.1l85,124c46.8,68.2,85.6,124.6,86.3,125.3c2,2.1,12.8,1.9,13.6-0.2
	c0.9-2.4,0.7-267.7-0.3-269.2c-0.5-0.9-2.5-1.2-5.7-1l-4.9,0.3l-0.5,126.1l-0.5,126l-86-126l-86.1-126.1l-6.2-0.3
	C2080.8,520,2078.8,520.3,2078.5,521.2z"/>
<path class="st1" d="M2726.6,521.5c-0.9,2.5-0.7,267.8,0.3,269.3c0.5,0.9,2.5,1.2,5.7,1l4.9-0.3V656V520.5l-5.1-0.3
	C2728.4,520,2727.1,520.3,2726.6,521.5z"/>
<path class="st1" d="M2890.5,521.2c-0.3,0.7-0.4,61.8-0.3,135.8l0.3,134.5l4.6,0.3c3,0.2,5-0.2,5.7-1.1c0.9-1,1.3-33.2,1.4-125.4
	l0.3-124.1l55.5,78.9l55.5,78.9l4.5-0.2l4.5-0.3l55.5-78.8l55.5-78.8l0.5,125.3c0.3,68.9,0.6,125.4,0.8,125.6c0.1,0.2,2.6,0.2,5.5,0
	l5.2-0.3V656V520.5l-5.6-0.3c-5.5-0.3-5.7-0.2-8.6,3.5c-1.6,2.1-27.6,39-57.7,82.1c-30.2,43.1-55.3,78.1-55.7,78
	c-0.5-0.2-26.7-37-58.2-81.8l-57.3-81.5l-5.7-0.3C2892.7,520,2890.8,520.3,2890.5,521.2z"/>
<path class="st1" d="M3337.1,654.7c-30.3,74-55,135.2-54.7,136c0.4,1,2.1,1.3,6.2,1.1l5.6-0.3l19.2-47.2l19.1-47.3h64.5h64.6
	l19.1,47.2l19.2,47.3h5.8c4.6,0,5.8-0.3,6.1-1.7c0.2-0.9-24.5-62-54.9-135.7L3401.7,520h-4.7h-4.7L3337.1,654.7z M3427,611.7
	c16.2,39.9,29.7,73,29.8,73.5c0.2,0.4-26.4,0.8-59.2,0.8s-59.6-0.3-59.6-0.8c0-1.3,58.5-146.2,59-146.2
	C3397.3,539,3410.8,571.7,3427,611.7z"/>
<path class="st1" d="M291.2,656.7l0.3,134.8H355h63.5l0.3-5.3l0.3-5.2h-58H303v-42v-42l49.3-0.2l49.2-0.3l0.3-5.3l0.3-5.2h-49.5H303
	v-76.5V533l55.8-0.2l55.7-0.3v-5v-5l-61.8-0.3L291,522L291.2,656.7z"/>
<path class="st1" d="M838.2,527.2l0.3,5.3l45.2,0.3L929,533l0.2,129.3l0.3,129.2l4.9,0.3c3.2,0.2,5.2-0.1,5.7-1
	c0.5-0.7,0.9-59,0.9-129.6V533h44.9c48.9,0,46.1,0.3,46.1-5.5c0-5.9,7.8-5.5-97.7-5.5h-96.4L838.2,527.2z"/>
<path class="st1" d="M2404.6,523.6c-0.8,2-0.8,5.8,0,7.8c0.5,1.4,5.5,1.6,45.5,1.6h44.9v128.2c0,70.6,0.4,128.9,0.9,129.6
	c0.5,0.9,2.5,1.2,5.7,1l4.9-0.3l0.3-129.2L2507,533l45.3-0.2l45.2-0.3v-5v-5l-96.1-0.3C2414.3,522,2405.2,522.1,2404.6,523.6z"/>
<path class="st1" d="M2789.3,1170.5c-108.1,179.9-197.2,327.8-197.8,328.8c-1.1,1.5-2.9-1-14-19c-46-74.4-104.1-170.2-205-337.8
	c-29.8-49.5-66.5-110.4-81.5-135.3l-27.4-45.2h-10.8h-10.7l78.6,130.7c43.2,72,107.1,178.2,141.9,236.1
	c34.8,57.9,62.9,105,62.5,104.8c-0.4-0.3-118-127.7-261.2-283.1L2003.5,868h-11c-6,0-11.5,0.4-12.1,0.8
	c-0.7,0.4,115.3,127.2,304.7,332.7c168.2,182.6,306.2,332.1,306.6,332.2c0.8,0.3,412.4-448.8,413.1-450.7c0.2-0.6-24-2.3-24.3-1.7
	c-0.5,0.7-324.7,354.1-328.2,357.7c-3.2,3.3,44.3-76.7,175.1-294.8c98.8-164.7,179.6-299.5,179.6-299.7s-4.7-0.5-10.5-0.7l-10.5-0.3
	L2789.3,1170.5z"/>
<path class="st2" d="M536.4,858c-12.5,4.2-22.7,16.8-25.8,31.9c-0.7,3.4-0.9,10.7-0.7,17.1c0.4,9.9,0.9,12.2,3.7,18.3
	c4.1,8.8,10.4,15.1,18.3,18.3c5.2,2.1,7.5,2.3,16.3,2c10.6-0.5,16.1-2.4,17.4-5.8c1.2-3.5,0.7-39.5-0.6-40.9
	c-0.8-0.9-5-1.3-12.1-1.3c-12,0-13.4,0.7-13.4,6.1c0,6.6,0.6,7,8.3,7h7.1v10.8c0,12.2,0.1,12.2-9.1,12.2c-10,0-17.6-4.8-21.8-13.9
	c-2.1-4.5-2.5-6.9-2.5-17.3c0-10.4,0.3-12.7,2.4-17.2c3.4-7.3,8.7-12.4,15.5-14.7c5.5-1.8,6.3-1.9,13.9-0.1c4.5,1,8.5,1.5,9,1.2
	c0.4-0.3,0.8-3,0.8-5.9c0-5.2-0.1-5.3-4.1-7C554.7,856.9,541.2,856.5,536.4,858z"/>
<path class="st2" d="M671.3,858.4c-5,1.6-13.3,10.1-16.3,16.6c-4,8.4-5.5,15.5-5.5,27.2c0,21.4,8.3,37.3,22.5,42.3
	c2,0.8,6.3,1.3,9.8,1.3c14.8,0,26.7-12.5,30.5-31.8c1.8-8.9,0.6-25.3-2.3-34c-3.1-9-12.4-19.6-19-21.7
	C686,856.8,676,856.8,671.3,858.4z M687.8,870.6c4.4,2,8.3,6.7,11.2,13.3c2,4.6,2.3,7.5,2.4,17.5c0,10.3-0.3,12.8-2.4,17.5
	c-5.7,13.1-15.2,17.9-25.5,12.5c-8.9-4.6-13.5-16.8-12.4-33.9c0.6-10.5,2.3-15.7,7.1-21.5C673.8,869.4,680.9,867.4,687.8,870.6z"/>
<path class="st2" d="M807.3,859c-8.4,4.4-12.9,12.3-12.9,23.2c0,12.2,5.1,18.8,18.2,23.5c13.8,5,15.7,6.9,15.7,15.1
	c0,5.7-2.2,9.3-6.8,11.4c-4.9,2.2-8.7,1.9-17.6-1.2c-4.7-1.8-8.2-2.4-8.7-1.9c-0.5,0.6-0.8,3.4-0.6,6.3c0.3,4.9,0.6,5.5,4.3,7.5
	c5.1,2.9,18.3,3.8,25,1.9c6.2-1.9,13.1-8.9,14.6-14.8c1.6-6.3,1.4-15.2-0.4-20.1c-3.1-7.7-7.4-11-20.5-15.6c-9-3.2-11.9-6-11.9-12.1
	c0-12.4,9.8-16.4,24.2-9.9c6.6,3.1,7.7,2.4,7.7-4.3c0-5.4-0.1-5.6-4.3-8C827.1,856.7,813.1,856.1,807.3,859z"/>
<path class="st2" d="M1018.1,859c-8.4,4.3-12.9,12.3-12.9,23c0,12.3,4.9,19,17.2,23.2c14.5,5.1,17.6,8.4,16.4,17.6
	c-1.3,10.6-10.6,13.4-26.1,7.6c-3.2-1.2-6.3-1.8-6.8-1.2c-0.4,0.4-0.7,3.3-0.5,6.3c0.3,5,0.5,5.5,4.4,7.4c2.7,1.4,7,2.3,12.6,2.6
	c17.2,1,26.5-6.9,27.7-23.3c1-14-4.7-21.9-20.2-27.4c-11.2-4-13.5-5.9-13.5-12.2c0-12.9,9.6-17,24.2-10.3c6.6,3.1,7.7,2.4,7.7-4.3
	c0-5.4-0.1-5.6-4.3-8C1037.9,856.7,1023.9,856.1,1018.1,859z"/>
<path class="st2" d="M1415,859c-8.4,4.4-12.8,12.3-12.8,23.2c0,12.2,5.1,18.8,18.2,23.5c13.8,5,15.7,6.9,15.7,15.1
	c0,5.7-2.2,9.3-6.8,11.4c-4.9,2.2-8.7,1.9-17.6-1.2c-4.7-1.8-8.2-2.4-8.7-1.9c-0.5,0.6-0.8,3.4-0.6,6.3c0.3,4.9,0.6,5.5,4.3,7.5
	c5.1,2.9,18.3,3.8,25,1.9c6.2-1.9,13.1-8.9,14.6-14.8c1.7-6.3,1.4-15.2-0.4-20.1c-3.1-7.7-7.4-11-20.5-15.6
	c-9.1-3.2-11.9-6-11.9-12.1c0-12.4,9.8-16.4,24.2-9.9c6.6,3.1,7.7,2.4,7.7-4.3c0-5.4-0.1-5.6-4.3-8
	C1434.8,856.7,1420.8,856.1,1415,859z"/>
<path class="st2" d="M1912.2,858.2c-14.7,6.6-19.3,29.3-8.3,40.4c2.8,2.9,6.5,4.8,13.1,7.1c12.1,4.3,14.8,7,14.8,15.3
	c0,5.2-0.4,6.6-2.6,8.7c-4.7,4.7-11.2,5-21.6,1.3c-8.7-3.2-10-2.5-9.6,4.7c0.3,5,0.3,5,6,7.5c6.3,2.7,17.3,3.3,24,1.3
	c5-1.4,10.8-6.9,13.2-12.5c2.4-5.4,2.6-17.3,0.4-22.7c-2.2-5.6-7.5-10.1-16-13.5c-13.1-5.3-14.1-5.8-15.3-8.3
	c-1.9-3.7-0.7-11.7,2.4-14.9c3.8-4.2,10-4.5,19.2-1c4.2,1.5,8,2.4,8.5,1.9c0.4-0.4,0.7-3.3,0.5-6.3c-0.3-5-0.5-5.5-4.4-7.6
	C1931.6,857.3,1916.4,856.2,1912.2,858.2z"/>
<path class="st2" d="M39.3,859.1c-1.7,2.9-26.4,81.7-26.1,83.2c0.2,1.4,1.5,2,5,2.2l4.7,0.3l4.5-13.8l4.5-13.7h12H56l3.4,10.6
	c4.9,16.3,5.2,16.8,10.7,16.8c2.5,0,4.8-0.4,5.1-1.1c0.5-0.9-21.5-70.9-25.8-82c-1.2-3.1-1.8-3.5-5.5-3.5
	C41.7,858.1,39.6,858.5,39.3,859.1z M47.8,903.9c-2.2,0.2-5.7,0.2-7.9,0l-3.9-0.3l3.5-9.9c1.8-5.5,3.7-10.6,4-11.5
	c0.4-1,2.3,3.3,4.4,9.9l3.7,11.5L47.8,903.9z"/>
<path class="st2" d="M155.5,859.8c-0.9,2.6-0.7,81.9,0.3,83.5c0.5,1,2.5,1.3,5.4,1.1l4.5-0.3l0.3-17.3l0.3-17.3l2.7,0.3
	c2.4,0.2,4.6,3.2,13.7,17.3l10.8,17l4.9,0.3c7.2,0.5,7.1-1.3-0.4-13.7c-3.5-5.9-7.9-13.3-9.9-16.4l-3.4-5.7l3.7-1.9
	c7.1-3.6,11.8-13.3,11.8-24c0-8.2-1.8-13-6.4-17.6c-5.8-5.6-10.7-7-25-7C158.2,858.1,156,858.4,155.5,859.8z M183.9,873
	c1.5,0.9,3.4,2.6,4,4c1.6,3.2,0.6,13.5-1.4,16c-2.4,2.7-8.4,4.6-15,4.6h-5.2v-13.8v-13.8l7.5,0.8C177.7,871.1,182.4,872.2,183.9,873
	z"/>
<path class="st2" d="M279.9,859.8c-0.3,1-0.6,3.4-0.6,5.4c0,5,2.1,6,12.8,6h8.8v35c0,19.3,0.3,35.7,0.6,36.7
	c0.4,1.3,2.1,1.8,5.7,1.8h5V908v-36.7h9.4c11.2,0,13.3-0.9,13.3-6c0-7.6,1.5-7.1-27.8-7.1C283.8,858.1,280.5,858.3,279.9,859.8z"/>
<path class="st2" d="M414.6,859.7c-0.9,2.7-0.7,82,0.3,83.6c0.5,1,2.5,1.3,5.4,1.1l4.5-0.3v-42.8v-42.8l-4.7-0.3
	C416.4,858.1,415.1,858.4,414.6,859.7z"/>
<path class="st2" d="M1134.3,859.4c-0.3,0.8-0.4,20.2-0.3,43.1l0.3,41.7l21.8,0.3l21.9,0.2l0.6-2.6c0.3-1.4,0.4-4.1,0.2-5.7
	l-0.3-3.2l-16.7-0.3l-16.8-0.2v-13.1v-13.2h14.4h14.4v-6v-6h-14.4h-14.4v-12.1v-11.9l15.7-0.3l15.6-0.3v-5.5v-5.5l-20.9-0.3
	C1139.5,858.1,1134.6,858.3,1134.3,859.4z"/>
<path class="st2" d="M1262.8,859.4c-0.3,0.8-0.4,20.2-0.3,43.1l0.3,41.7h5.1h5.1l0.3-30.7l0.3-30.7l4.3,7.1c2.4,4,10.1,17.9,17.2,31
	l12.8,23.8h4.4h4.4v-43.3v-43.3h-5.1h-5.1l-0.2,30.2l-0.3,30.1l-17.1-29.8l-17.1-29.9l-4.2-0.3
	C1264.8,858.1,1263.2,858.4,1262.8,859.4z"/>
<path class="st2" d="M1531.1,859.5c-0.3,0.9-0.4,15.9-0.1,33.3c0.4,34.9,0.7,36.8,6.8,44.4c4.8,6,10.3,8.5,18.6,8.5
	c9.8,0,14.2-1.6,19.2-7.2c7-7.7,7.7-11.6,8.2-45.6c0.3-16.1,0.3-30.5-0.1-32c-0.6-2.6-1.1-2.8-5.7-2.8h-5l-0.4,32
	c-0.3,29.9-0.4,32.3-2.4,36c-5.3,9.6-19.2,10.1-25.6,0.8c-2.1-3-2.2-4.9-2.7-35.6l-0.5-32.6l-4.9-0.3
	C1533.1,858.1,1531.5,858.4,1531.1,859.5z"/>
<path class="st2" d="M1688.6,860c-4.4,12.1-26.2,82.2-25.8,83.3c0.4,1.1,2.1,1.4,5.4,1.2l4.8-0.3l4.3-13.1l4.3-13.2h12h12l4.3,13.2
	l4.3,13.1l4.8,0.3c3.6,0.2,5-0.1,5.4-1.3c0.4-1.2-20.1-67.3-25.8-83.2c-0.5-1.3-1.8-1.9-5.1-1.9
	C1690.5,858.1,1689.1,858.6,1688.6,860z M1701.4,903.8c0,0.2-3.5,0.3-7.8,0.3c-5.7,0-7.7-0.3-7.4-1.4c0.2-0.7,1.9-6.1,3.9-12
	l3.6-10.6l3.8,11.7C1699.6,898.3,1701.3,903.7,1701.4,903.8z"/>
<path class="st2" d="M1803.7,859.5c-0.3,0.7-0.4,20.1-0.3,43l0.3,41.7h5.1h5.1l0.3-40.6c0.1-22.4,0-41.7-0.3-43.1
	c-0.5-2.1-1.2-2.4-5.2-2.4C1806.1,858.1,1803.9,858.6,1803.7,859.5z"/>
</svg>
