<?xml version="1.0" encoding="utf-8"?>
<!-- Generator: Adobe Illustrator 24.0.1, SVG Export Plug-In . SVG Version: 6.00 Build 0)  -->
<svg version="1.1" id="Camada_1" xmlns="http://www.w3.org/2000/svg" xmlns:xlink="http://www.w3.org/1999/xlink" x="0px" y="0px"
	 viewBox="0 0 4322 878.3" style="enable-background:new 0 0 4322 878.3;" xml:space="preserve">
<style type="text/css">
	.st0{stroke:#000000;stroke-width:12;stroke-miterlimit:10;}
	.st1{stroke:#000000;stroke-width:20;stroke-miterlimit:10;}
</style>
<path class="st0" d="M169.9,129.4l-59.1,43.2l6.5,0.1l6.5,0.1l25.6-18.4c14.1-10.2,38.6-27.8,54.4-39.2l28.9-20.8l2.1,1.9
	c1.1,1,16.9,16.5,35.1,34.3s39.5,38.6,47.3,46.3l14.3,14h6.1c3.3,0,6.1-0.1,6.1-0.4c0-0.2-22.2-21.8-49.2-48.1l-49.2-47.8l67.9-0.1
	c37.3,0,98.3,0,135.5,0l67.6,0.1L449.5,164l-66.8,69.3l-177.3,0.1L28,233.5l10,10.6l10,10.6h5.9h5.9l-5.1-5.5
	c-2.9-3-5.5-5.9-5.8-6.4c-0.6-0.9,4.6-0.9,477.4-0.9h478.1l-1.1,1.4c-2.5,3.1-33.2,40.2-36.3,43.8c-0.6,0.8-0.3,0.8,5.9,0.8h6.6
	l7.7-9.4c17.4-21.2,33.9-41.7,33.8-42.1c-0.1-0.2-26.8-19.9-59.3-43.8l-59.2-43.5l-6.6,0.1c-6.4,0.1-6.6,0.1-6.7,1.1
	c-0.1,0.7,0.2,1,0.9,1.3c1.4,0.5,24.3,16.5,32.5,22.8c17.3,13.2,37.1,27.9,76.3,56.8c1.7,1.2,3,2.3,2.9,2.5
	c-0.1,0.1-75.8,0-168.2-0.1l-168-0.3L599,163.9l-66.5-69.2l66.2-0.1c36.4,0,96,0,132.4,0l66.2,0.1l-14.2,13.5
	c-7.8,7.4-18.2,17.1-23.1,21.6c-4.9,4.5-8.9,8.3-9,8.5s2.8,0.4,6.4,0.4h6.5l27.4-25.9c15.1-14.2,27.6-26,27.8-26.1
	c0.1-0.1-132.6-0.3-294.9-0.3H229.1L169.9,129.4z M589,165.6l63,67.5l-63.4,0.1c-34.9,0-92.1,0-127.2,0l-63.8-0.1l10.9-11.6
	c6-6.4,34.6-37,63.6-68c39.4-42.1,52.8-56.3,53.3-55.9C525.7,97.9,554.2,128.5,589,165.6z"/>
<path d="M2872.8,240c-6.5,11.9-11.9,22.2-11.9,23.1c0,1.3,1,1.5,7.2,1.5h7.1l12-21.6c6.5-11.9,11.9-22.2,11.9-23.1
	c0-1.3-1-1.5-7.2-1.5h-7.1L2872.8,240z"/>
<path d="M2248.7,226.8c-5.5,1.7-12.3,6.2-17,11.2l-3.7,4l4.4,4.4l4.4,4.4l5-4.5c12.3-11.2,20-11.4,44-0.7
	c14.1,6.4,18.8,7.6,28.6,7.6c11.7,0,20.8-4.1,28.8-12.7l3.7-4l-4.4-4.4l-4.4-4.4l-5,4.5c-12.3,11.2-20,11.4-44,0.7
	c-6.9-3.1-14.6-6.1-17.2-6.6C2265.6,225,2253.9,225.1,2248.7,226.8z"/>
<path class="st1" d="M1241.3,314.2c-21.3,5.6-37.1,21.1-43.2,42.3c-2.5,9-2.7,25.7-0.4,34.4c6,22.7,22,37.1,53.3,47.9
	c26.8,9.3,40.6,18.8,48.7,33.5c8,14.4,8.5,32.7,1.4,47.2c-3.5,7.1-12.6,15.8-20.5,19.5c-8.7,4.2-20.7,6.4-31.4,5.8
	c-19.8-1-33.5-8.9-49.3-28.5l-3-3.8l-3.2,2c-1.7,1-3.2,2.6-3.2,3.4c0,2.5,6.1,10.7,12.8,17.3c7.5,7.4,17.1,13.3,26.8,16.6
	c6.4,2.2,8.1,2.4,21.8,2.4c17.2,0,23.5-1.3,35.6-7.7c8-4.1,17.9-13.2,21.8-20c6.7-11.5,9.2-29.1,6.3-43
	c-3.1-14.1-11.4-27.3-22.7-35.9c-7.6-5.8-23.7-13.7-37.5-18.6c-35-12.2-48.5-27.8-48.6-56.1c0-15.7,3.9-26.1,13.7-35.7
	c10.9-10.8,24.7-15.9,40.2-14.9c15.9,1,24.8,4.7,34.5,14.4c4.7,4.8,7.4,8.3,9.3,12.5c1.7,3.5,3.3,5.9,4.1,5.9c1.6,0,8.3-4.1,8.3-5.1
	c0-0.3-1.8-3.7-4.1-7.6c-11.5-19.7-30.6-30.1-55.1-30C1250.6,312.5,1245.6,313.1,1241.3,314.2z"/>
<path class="st1" d="M2601.2,312.9c-0.7,0.2-4.3,0.8-7.8,1.3c-34.9,5.6-68.7,30.6-85.7,63.5c-9.6,18.6-13.2,33.9-13.2,55.9
	c0,16.7,1,23.6,5.8,38.3c13.8,43.2,53.3,76.1,98.8,82c9.9,1.3,32.7,0.5,41.3-1.4c23-5.1,43.3-16,59.8-32.2
	c25.1-24.7,37.2-55.3,35.9-91.1c-0.9-24.2-6.7-42.8-19.6-62.4c-17.6-26.7-44.6-45.1-76.2-52.2C2634.4,313.3,2604.9,312,2601.2,312.9
	z M2638.2,324.6c42.8,9.3,76.2,43.4,85.6,87.5c2.1,9.9,2.1,33.1,0,43c-6.1,28.8-22,53.1-45.8,70c-12.8,9.1-24.5,14.2-40.2,17.7
	c-11.2,2.4-32.7,2.6-43.6,0.3c-22.4-4.8-39.6-14.2-56.3-30.7c-43.3-42.9-44.4-110.9-2.6-155.4c17.8-18.7,40.5-30.7,65.5-34.1
	C2609.7,321.8,2629.1,322.6,2638.2,324.6z"/>
<path class="st1" d="M1678,316.1c-0.3,0.6-0.3,53.9-0.3,118.3l0.3,117.2h4.4h4.4l0.3-113.5l0.2-113.5h30.1c32.7,0,43.6,0.8,53.2,3.8
	c16.1,5.1,30.2,17.3,37.7,32.4c4.4,9.1,6.3,16.5,6.8,27.8c1,22.1-5.4,38.7-20.7,53c-12.5,11.7-25.8,16.7-47.2,17.7
	c-11,0.6-12.1,0.8-11.9,2.2c0.3,1.5,68.6,86,72.2,89.2c2.2,2,11.6,1.6,12-0.6c0.3-1.1-17.3-22.9-61.9-76.7l-3.4-4.1l3.3-0.5
	c19.5-3,33.6-9.8,45.9-21.9c16.8-16.6,24.8-39.4,22.2-63.1c-3-26.3-18.2-48.6-41.3-60.1c-16-8.1-16.5-8.1-64.3-8.5
	C1686.2,315,1678.3,315.2,1678,316.1z"/>
<path class="st1" d="M2282,317.9c-35.7,86.2-94.8,231.9-94.5,232.9c0.4,1,1.8,1.3,5.2,1.3h4.7l13.2-32.5
	c7.2-17.8,14.8-36.4,16.8-41.4l3.6-8.9l56.3,0.2l56.3,0.3l16.6,41l16.6,41l5,0.3c3.8,0.2,5.1-0.1,5.5-1c0.4-1-91.1-225.3-95.2-233.4
	c-1.1-2-1.8-2.4-5.1-2.4C2283.5,315.1,2283,315.3,2282,317.9z M2313.5,395.4l25.9,63.9l-26,0.3c-14.3,0.1-37.6,0.1-51.9,0l-26.1-0.3
	l25.8-64.2c14.2-35.3,25.9-64,26.1-63.9S2299.3,360.2,2313.5,395.4z"/>
<path class="st1" d="M2858.8,316.4c-0.8,2.2-0.6,233.4,0.3,234.7c0.4,0.8,2.2,1,5,0.9l4.3-0.3V433.6V315.5l-4.4-0.3
	C2860.3,315.1,2859.2,315.3,2858.8,316.4z"/>
<path class="st1" d="M3001.6,316.1c-0.3,0.6-0.3,53.9-0.3,118.3l0.3,117.2l4.6,0.3c2.4,0.2,4.6,0.2,4.7,0
	c0.2-0.2,0.4-49.3,0.7-109.3l0.4-109l74.1,108.1c40.8,59.4,74.6,108.6,75.2,109.2c1.7,1.8,11.2,1.7,11.9-0.2
	c0.8-2.1,0.6-233.3-0.3-234.6c-0.4-0.8-2.2-1-5-0.9l-4.3,0.3l-0.4,109.9l-0.4,109.8l-74.9-109.8l-75-109.9l-5.4-0.3
	C3003.6,315.1,3001.8,315.3,3001.6,316.1z"/>
<path class="st1" d="M3566.3,316.4c-0.8,2.2-0.6,233.4,0.3,234.7c0.4,0.8,2.2,1,5,0.9l4.3-0.3V433.6V315.5l-4.4-0.3
	C3567.9,315.1,3566.8,315.3,3566.3,316.4z"/>
<path class="st1" d="M3709.1,316.1c-0.3,0.6-0.3,53.9-0.3,118.3l0.3,117.2l4,0.3c2.6,0.2,4.4-0.2,5-1c0.8-0.9,1.1-28.9,1.2-109.3
	l0.3-108.1l48.4,68.8l48.4,68.8l3.9-0.2l3.9-0.3l48.4-68.7l48.4-68.7l0.4,109.2c0.3,60,0.5,109.3,0.7,109.4c0.1,0.2,2.3,0.2,4.8,0
	l4.5-0.3V433.6V315.5l-4.9-0.3c-4.8-0.3-5-0.2-7.5,3c-1.4,1.8-24.1,34-50.3,71.5c-26.3,37.6-48.2,68.1-48.5,68
	c-0.4-0.2-23.3-32.2-50.7-71.3l-49.9-71l-5-0.3C3711.1,315.1,3709.4,315.3,3709.1,316.1z"/>
<path class="st1" d="M4098.3,432.4c-26.4,64.5-47.9,117.8-47.7,118.5c0.3,0.9,1.8,1.1,5.4,1l4.9-0.3l16.7-41.1l16.6-41.2h56.2h56.3
	l16.6,41.1l16.7,41.2h5.1c4,0,5.1-0.3,5.3-1.5c0.2-0.8-21.3-54-47.8-118.2L4154.5,315h-4.1h-4.1L4098.3,432.4z M4176.6,395
	c14.1,34.8,25.9,63.6,26,64c0.2,0.3-23,0.7-51.6,0.7s-51.9-0.3-51.9-0.7c0-1.1,51-127.4,51.4-127.4
	C4150.8,331.6,4162.5,360.1,4176.6,395z"/>
<path class="st1" d="M1444.2,434.2l0.3,117.5h55.3h55.3l0.3-4.6l0.3-4.5h-50.5h-50.6V506v-36.6l43-0.2l42.9-0.3l0.3-4.6l0.3-4.5
	H1498h-43.2v-66.7v-66.7l48.6-0.2l48.5-0.3v-4.4v-4.4l-53.9-0.3l-53.8-0.2L1444.2,434.2z"/>
<path class="st1" d="M1920.8,321.3l0.3,4.6l39.4,0.3l39.5,0.2l0.2,112.7l0.3,112.6l4.3,0.3c2.8,0.2,4.5-0.1,5-0.9
	c0.4-0.6,0.8-51.4,0.8-112.9V326.4h39.1c42.6,0,40.2,0.3,40.2-4.8c0-5.1,6.8-4.8-85.1-4.8h-84L1920.8,321.3z"/>
<path class="st1" d="M3285.7,318.2c-0.7,1.7-0.7,5.1,0,6.8c0.4,1.2,4.8,1.4,39.6,1.4h39.1v111.7c0,61.5,0.3,112.3,0.8,112.9
	c0.4,0.8,2.2,1,5,0.9l4.3-0.3l0.3-112.6l0.2-112.7l39.5-0.2l39.4-0.3v-4.4V317l-83.7-0.3C3294.2,316.8,3286.3,316.9,3285.7,318.2z"
	/>
<path class="st0" d="M664.1,558.7c-70.5,118.6-128.6,216.2-129,216.8c-0.8,1-1.9-0.7-9.1-12.5c-30-49-67.9-112.2-133.6-222.7
	c-19.5-32.6-43.4-72.8-53.1-89.2l-17.9-29.8h-7.1h-7l51.3,86.1c28.2,47.4,69.8,117.5,92.5,155.7c22.7,38.2,41,69.2,40.7,69.1
	c-0.3-0.3-76.9-84.2-170.3-186.7L151.6,359.1h-7.2c-3.9,0-8.5-0.2-8.9,0c-0.5,0.3,76.2,84.4,199.7,219.9
	c109.7,120.4,199.6,218.9,199.9,219c0.5,0.3,268.9-295.9,269.3-297.2c0.1-0.4-15.6-1.6-15.8-1.2c-0.4,0.5-211.7,233.5-214,235.8
	c-2.1,2.2,28.9-50.6,114.2-194.4c64.4-108.5,117.1-197.5,117.1-197.7c0-0.1-3.1-0.4-6.8-0.5l-6.8-0.3L664.1,558.7z"/>
</svg>
